<?xml version="1.0" encoding="UTF-8"?>
<svg width="97px" height="181px" viewBox="0 0 97 181" version="1.1" xmlns="http://www.w3.org/2000/svg" xmlns:xlink="http://www.w3.org/1999/xlink">
    <title>left</title>
    <g id="页面-1" stroke="none" stroke-width="1" fill="none" fill-rule="evenodd">
        <g id="left" transform="translate(48.500000, 90.500000) scale(-1, 1) translate(-48.500000, -90.500000) " fill="#000000" fill-rule="nonzero">
            <path d="M87.446875,1.4660625 L1.519875,86.5080625 C0.578786728,87.4353712 0.0489149579,88.7013704 0.0489149579,90.0225625 C0.0489149579,91.3437546 0.578786728,92.6097538 1.519875,93.5370625 L87.446875,178.581062 C89.4159218,180.5212 92.5778282,180.5212 94.546875,178.581062 C95.4879041,177.653926 96.0177524,176.388092 96.0177524,175.067062 C96.0177524,173.746033 95.4879041,172.480199 94.546875,171.553062 L12.171875,90.0240625 L94.546875,8.4940625 C95.4876535,7.56679138 96.0177524,6.30100755 96.0177524,4.9800625 C96.0177524,3.65911745 95.4876535,2.39333362 94.546875,1.4660625 C92.5778282,-0.47407535 89.4159218,-0.47407535 87.446875,1.4660625 L87.446875,1.4660625 Z" id="路径"></path>
        </g>
    </g>
</svg>